<svg width="250" height="250" viewBox="0 0 250 250" fill="none" xmlns="http://www.w3.org/2000/svg">
<circle cx="125" cy="125" r="125" fill="#ECC584"/>
<path d="M50.245 76.28H119.685V94.36H73.125V122.2H111.685L108.965 140.28H73.125V183H50.245V76.28ZM178.584 133.56L205.304 183H180.984L156.024 134.68L178.584 133.56ZM163.384 90.84C160.077 90.84 157.41 90.9467 155.384 91.16C153.357 91.2667 152.344 91.32 152.344 91.32V124.6C152.344 124.6 153.357 124.707 155.384 124.92C157.41 125.027 160.077 125.08 163.384 125.08C168.397 125.08 172.29 123.587 175.064 120.6C177.944 117.613 179.384 113.507 179.384 108.28C179.384 102.733 177.944 98.4667 175.064 95.48C172.29 92.3867 168.397 90.84 163.384 90.84ZM129.464 76.28C129.464 76.28 130.424 76.2267 132.344 76.12C134.264 75.9067 136.824 75.6933 140.024 75.48C143.33 75.2667 147.01 75.1067 151.064 75C155.117 74.7867 159.224 74.68 163.384 74.68C171.81 74.68 179.01 76.0667 184.984 78.84C191.064 81.6133 195.704 85.5067 198.904 90.52C202.104 95.4267 203.704 101.293 203.704 108.12C203.704 114.84 202.104 120.653 198.904 125.56C195.704 130.467 191.064 134.307 184.984 137.08C179.01 139.747 171.757 141.08 163.224 141.08C159.917 141.08 157.25 141.027 155.224 140.92C153.197 140.707 152.184 140.6 152.184 140.6V183H129.464V76.28Z" fill="black"/>
</svg>
