<svg width="44" height="29" viewBox="0 0 44 29" fill="none" xmlns="http://www.w3.org/2000/svg">
<path d="M-0.000265479 17.568C-0.000265479 24.384 3.83973 28.512 9.69573 28.512C14.8797 28.512 18.3357 25.344 18.3357 20.832C18.3357 16.896 15.2637 13.728 11.0397 13.728C10.3677 13.728 9.59973 13.824 8.83173 14.016C9.98374 9.6 14.3037 7.392 19.9677 8.16V1.44C9.31174 0 -0.000265479 7.488 -0.000265479 17.568ZM23.2317 17.568C23.2317 24.384 27.0717 28.512 32.9277 28.512C38.2077 28.512 41.5677 25.344 41.5677 20.832C41.5677 16.896 38.4957 13.728 34.2717 13.728C33.5997 13.728 32.8317 13.824 32.0637 14.016C33.2157 9.6 37.5357 7.392 43.1997 8.16V1.44C32.5437 0 23.2317 7.488 23.2317 17.568Z" fill="black"/>
</svg>
